HIERARCHY
ROOT Hips
{
 OFFSET 0.000000 0.000000 0.000000
 CHANNELS 6 Xposition Yposition Zposition Yrotation Xrotation Zrotation
 JOINT Chest
 {
  OFFSET 0.000000 9.585900 0.002600
  CHANNELS 3 Yrotation Xrotation Zrotation
  JOINT Chest2
  {
   OFFSET 0.000000 9.601200 -0.005300
   CHANNELS 3 Yrotation Xrotation Zrotation
   JOINT Chest3
   {
    OFFSET 0.000000 9.561800 0.000000
    CHANNELS 3 Yrotation Xrotation Zrotation
    JOINT Chest4
    {
     OFFSET 0.000000 9.552100 0.000000
     CHANNELS 3 Yrotation Xrotation Zrotation
     JOINT Neck
     {
      OFFSET 0.000000 14.453000 0.000000
      CHANNELS 3 Yrotation Xrotation Zrotation
      JOINT Head
      {
       OFFSET 0.000000 8.936500 -0.011300
       CHANNELS 3 Yrotation Xrotation Zrotation
       End Site
       {
        OFFSET 0.000000 17.073600 -0.006000
       }
      }
     }
     JOINT RightCollar
     {
      OFFSET -2.921100 9.558500 0.000000
      CHANNELS 3 Yrotation Xrotation Zrotation
      JOINT RightShoulder
      {
       OFFSET -13.519700 0.000000 0.000000
       CHANNELS 3 Yrotation Xrotation Zrotation
       JOINT RightElbow
       {
        OFFSET 0.000000 -29.696600 0.000000
        CHANNELS 3 Yrotation Xrotation Zrotation
        JOINT RightWrist
        {
         OFFSET 0.000000 -24.004700 0.000000
         CHANNELS 3 Yrotation Xrotation Zrotation
         End Site
         {
          OFFSET 0.000000 -17.728500 0.000000
         }
        }
       }
      }
     }
     JOINT LeftCollar
     {
      OFFSET 2.921100 9.558500 0.000000
      CHANNELS 3 Yrotation Xrotation Zrotation
      JOINT LeftShoulder
      {
       OFFSET 13.519700 0.000000 0.000000
       CHANNELS 3 Yrotation Xrotation Zrotation
       JOINT LeftElbow
       {
        OFFSET 0.000000 -29.696600 0.000000
        CHANNELS 3 Yrotation Xrotation Zrotation
        JOINT LeftWrist
        {
         OFFSET 0.000000 -24.004700 0.000000
         CHANNELS 3 Yrotation Xrotation Zrotation
         End Site
         {
          OFFSET 0.000000 -17.728500 0.000000
         }
        }
       }
      }
     }
    }
   }
  }
 }
 JOINT RightHip
 {
  OFFSET -7.771700 -0.012900 -0.001300
  CHANNELS 3 Yrotation Xrotation Zrotation
  JOINT RightKnee
  {
   OFFSET 0.000000 -40.869800 0.001200
   CHANNELS 3 Yrotation Xrotation Zrotation
   JOINT RightAnkle
   {
    OFFSET 0.000000 -39.717900 0.002100
    CHANNELS 3 Yrotation Xrotation Zrotation
    JOINT RightToe
    {
     OFFSET 0.000000 -4.965400 11.033500
     CHANNELS 3 Yrotation Xrotation Zrotation
     End Site
     {
      OFFSET 0.000000 -1.423100 5.872300
     }
    }
   }
  }
 }
 JOINT LeftHip
 {
  OFFSET 7.771700 -0.012900 -0.001300
  CHANNELS 3 Yrotation Xrotation Zrotation
  JOINT LeftKnee
  {
   OFFSET 0.000000 -40.869800 0.001200
   CHANNELS 3 Yrotation Xrotation Zrotation
   JOINT LeftAnkle
   {
    OFFSET 0.000000 -39.717900 0.002100
    CHANNELS 3 Yrotation Xrotation Zrotation
    JOINT LeftToe
    {
     OFFSET 0.000000 -4.965400 11.033500
     CHANNELS 3 Yrotation Xrotation Zrotation
     End Site
     {
      OFFSET 0.000000 -1.423100 5.872300
     }
    }
   }
  }
 }
}
MOTION
Frames: 15
Frame Time: 0.008333
0.000000 85.388000 0.000000 0.000000 -5.767877 0.000000 0.000000 11.653817 0.000000 0.000000 -5.885947 0.000000 0.000000 -0.000000 0.000000 0.000000 -0.000000 0.000000 0.000000 12.528835 0.000000 0.000000 0.711642 0.000000 0.000000 -0.000000 0.000000 0.000000 0.000000 -90.000000 0.000000 -2.309062 0.000000 0.000000 2.309062 0.000000 0.000000 -0.000000 0.000000 0.000000 -0.000000 90.000000 0.000000 -2.309062 0.000000 0.000000 2.309062 0.000000 0.000000 8.520406 0.000000 0.000000 1.905762 0.000000 -0.000000 -4.658285 0.000000 0.000000 -0.000000 0.000000 0.000000 8.520406 0.000000 0.000000 1.905762 0.000000 -0.000000 -4.658285 0.000000 0.000000 -0.000000 0.000000
-20.961519 51.912059 30.166420 -179.478400 -39.727057 -0.892738 2.161489 26.216226 -1.572929 0.382499 4.365863 -0.219604 0.590194 6.961493 -0.332161 1.751620 21.522281 -0.816596 0.512199 16.303577 -7.006130 2.211595 -8.352163 -7.712500 12.042523 13.198631 14.659363 26.080677 -7.372394 -32.356390 -179.967858 -62.258164 140.157793 -6.261205 4.266722 -8.354928 -10.625822 14.261495 -17.508202 -28.692007 -3.574415 38.494952 165.671702 -54.229148 -130.617714 19.928240 -11.314631 -18.072827 -8.307161 -42.790142 -0.471986 -55.256524 81.700704 -64.045672 -4.021927 -5.946245 8.435753 0.065904 -0.635915 0.062387 3.669343 -41.059477 -3.579560 34.911616 83.323377 39.911491 -2.741868 -11.260147 0.088312 0.291304 0.588229 0.113417
-20.960812 51.911034 30.166497 -179.499224 -39.699793 -0.887926 2.172261 26.200054 -1.565717 0.374761 4.375063 -0.216597 0.589244 6.957521 -0.331521 1.737311 21.533709 -0.802360 0.535211 16.286102 -7.034247 2.289368 -8.281273 -7.691077 12.055840 13.166052 14.633316 26.029154 -7.317951 -32.415622 179.024308 -62.196648 141.344049 -6.210569 4.191117 -7.733784 -10.602301 14.233841 -17.530728 -28.645578 -3.592378 38.527872 166.530802 -54.365060 -131.440243 19.885479 -11.152732 -18.566980 -8.302010 -42.821070 -0.446825 -55.312025 81.693539 -64.107289 -4.026865 -5.939560 8.435029 0.075756 -0.639115 0.055792 3.679854 -41.086014 -3.571844 34.951730 83.321193 39.959044 -2.748246 -11.266105 0.080549 0.293574 0.588765 0.118251
-20.958904 51.911743 30.164673 -179.534020 -39.684111 -0.881363 2.186999 26.205754 -1.551798 0.374565 4.373677 -0.216082 0.588998 6.955347 -0.330953 1.738150 21.530082 -0.802108 0.580640 16.320574 -7.018431 2.331422 -8.237958 -7.686222 12.060577 13.143800 14.628249 26.004700 -7.284920 -32.447900 177.879781 -62.172074 142.642998 -6.170354 4.103999 -7.070108 -10.585079 14.227490 -17.538774 -28.602628 -3.616630 38.567522 167.363564 -54.472322 -132.240162 19.832404 -11.010040 -19.062774 -8.293824 -42.839237 -0.411792 -55.368890 81.686296 -64.172454 -4.029220 -5.930425 8.432121 0.080101 -0.646522 0.059374 3.694879 -41.100352 -3.551240 35.009445 83.325189 40.021849 -2.750401 -11.277359 0.075702 0.289794 0.586423 0.121586
-20.958786 51.912471 30.163077 -179.551818 -39.664816 -0.874583 2.187466 26.208896 -1.548420 0.373580 4.371875 -0.215776 0.580065 6.970387 -0.324744 1.746370 21.508913 -0.809045 0.620107 16.358896 -7.000994 2.366316 -8.195167 -7.682319 12.064729 13.118151 14.655020 25.948833 -7.228370 -32.528957 176.724210 -62.139191 143.946642 -6.147188 4.000426 -6.364585 -10.574964 14.221948 -17.550196 -28.564917 -3.640983 38.611027 168.194102 -54.563437 -133.027980 19.780873 -10.885450 -19.550895 -8.288791 -42.859279 -0.398373 -55.382664 81.687224 -64.190351 -4.037799 -5.932803 8.432624 0.085818 -0.644175 0.059822 3.722892 -41.112301 -3.551513 34.967495 83.323585 39.992174 -2.755244 -11.294132 0.069621 0.289154 0.597768 0.129004
-20.958148 51.912908 30.162294 -179.566663 -39.639323 -0.872277 2.190462 26.204906 -1.544679 0.367999 4.388573 -0.208613 0.589802 6.940344 -0.332157 1.746129 21.514955 -0.800555 0.655423 16.397759 -6.987758 2.361171 -8.197891 -7.688091 12.066299 13.103018 14.652173 25.901382 -7.206758 -32.571793 175.442922 -62.133443 145.368095 -6.135118 3.879806 -5.618727 -10.570315 14.216619 -17.564202 -28.535805 -3.667475 38.652218 169.042478 -54.652891 -133.826868 19.747689 -10.777996 -20.025702 -8.289267 -42.884537 -0.382811 -55.412483 81.680248 -64.221008 -4.034461 -5.936504 8.431859 0.090747 -0.640409 0.058892 3.739615 -41.134788 -3.545633 34.945878 83.323821 39.975801 -2.751020 -11.299146 0.071261 0.280237 0.598206 0.128391
-20.959092 51.913974 30.161177 -179.570240 -39.617833 -0.867113 2.183218 26.203420 -1.546862 0.369846 4.386579 -0.207253 0.589776 6.931075 -0.335504 1.746819 21.522415 -0.792897 0.703932 16.479507 -6.949822 2.364190 -8.189062 -7.694522 12.073872 13.084966 14.663418 25.880927 -7.191139 -32.600936 173.989511 -62.153129 146.939349 -6.112364 3.754975 -4.834529 -10.568096 14.213204 -17.576681 -28.519215 -3.693913 38.682918 169.914679 -54.735062 -134.641899 19.724931 -10.676182 -20.484077 -8.284839 -42.906334 -0.384739 -55.437135 81.679579 -64.245058 -4.044898 -5.943821 8.438828 0.091979 -0.638057 0.049852 3.749732 -41.153862 -3.550179 34.928529 83.322864 39.957767 -2.745389 -11.296402 0.075970 0.278021 0.592815 0.125866
-20.960159 51.915342 30.160178 -179.577004 -39.598029 -0.858353 2.180371 26.201411 -1.549194 0.370943 4.387426 -0.204886 0.588966 6.928267 -0.335983 1.744564 21.525627 -0.791355 0.713882 16.501422 -6.940595 2.377185 -8.173817 -7.692348 12.080010 13.069111 14.673046 25.835136 -7.171523 -32.646170 172.511948 -62.143659 148.535247 -6.060273 3.634987 -4.023464 -10.567219 14.201611 -17.585515 -28.488705 -3.725066 38.708535 170.763128 -54.798471 -135.444668 19.699285 -10.572545 -20.931238 -8.281231 -42.928173 -0.387108 -55.446775 81.685387 -64.256859 -4.055585 -5.948345 8.441252 0.094880 -0.637400 0.047603 3.779552 -41.168915 -3.566153 34.877936 83.322301 39.918378 -2.742280 -11.295341 0.080327 0.270526 0.589310 0.123512
-20.962047 51.915801 30.160729 -179.581584 -39.569181 -0.844789 2.172061 26.211093 -1.547326 0.372138 4.368991 -0.213618 0.585374 6.948428 -0.326941 1.739872 21.506958 -0.803218 0.712794 16.515488 -6.933492 2.386775 -8.176362 -7.698171 12.081315 13.057641 14.681007 25.767032 -7.132495 -32.704722 170.999916 -62.091929 150.155942 -5.983245 3.522158 -3.194308 -10.565802 14.191184 -17.593055 -28.449621 -3.765649 38.731462 171.616044 -54.854252 -136.264508 19.674507 -10.478219 -21.378756 -8.274546 -42.960392 -0.396851 -55.438828 81.694286 -64.250389 -4.070369 -5.954042 8.441839 0.102353 -0.632559 0.047416 3.826624 -41.191870 -3.599437 34.791041 83.318806 39.849901 -2.735972 -11.291368 0.087152 0.264803 0.587088 0.120684
-20.963313 51.917688 30.159975 -179.580949 -39.553426 -0.836587 2.165812 26.205646 -1.553566 0.371277 4.380291 -0.210564 0.585173 6.937649 -0.330404 1.738926 21.519606 -0.800661 0.707818 16.508500 -6.933683 2.385581 -8.144349 -7.679048 12.080768 13.049613 14.685960 25.723530 -7.109646 -32.745143 169.345869 -62.051449 151.897302 -5.893562 3.414415 -2.350354 -10.552651 14.220582 -17.625272 -28.464452 -3.804280 38.784637 172.560698 -54.912987 -137.141465 19.657377 -10.396280 -21.843328 -8.271580 -42.979197 -0.410036 -55.428521 81.704883 -64.238393 -4.079318 -5.951309 8.442042 0.111077 -0.640191 0.044897 3.853260 -41.202343 -3.618096 34.712138 83.315850 39.777759 -2.729464 -11.283542 0.094023 0.257302 0.581611 0.118499
-20.964183 51.919130 30.160097 -179.580211 -39.533556 -0.828606 2.159246 26.196398 -1.560522 0.371202 4.392793 -0.208644 0.584370 6.926058 -0.332660 1.738422 21.527286 -0.801010 0.701547 16.504803 -6.931196 2.368831 -8.123102 -7.661966 12.078683 13.051239 14.699446 25.694967 -7.092648 -32.783131 167.596420 -62.006444 153.719690 -5.792477 3.306103 -1.492435 -10.552801 14.216035 -17.634806 -28.454952 -3.824907 38.797727 173.533132 -54.963745 -138.031724 19.639192 -10.314615 -22.345642 -8.269700 -43.002311 -0.424050 -55.418635 81.714786 -64.224397 -4.084511 -5.951308 8.440942 0.116259 -0.646848 0.044495 3.879882 -41.217970 -3.635084 34.630016 83.314021 39.702285 -2.728647 -11.277651 0.101256 0.254604 0.578485 0.117280
-20.968073 51.920253 30.160917 -179.569707 -39.510260 -0.806375 2.133872 26.196535 -1.589487 0.375282 4.394383 -0.208166 0.580170 6.926554 -0.333804 1.739138 21.530192 -0.805840 0.657911 16.515951 -6.915411 2.301501 -8.130684 -7.628049 12.078798 13.047292 14.716349 25.662063 -7.074716 -32.818581 165.803194 -61.933112 155.579214 -5.683550 3.196665 -0.614431 -10.554406 14.238115 -17.658782 -28.446605 -3.867572 38.834845 174.496757 -54.990790 -138.909650 19.610107 -10.223517 -22.902697 -8.255318 -43.030634 -0.465174 -55.406516 81.721074 -64.206650 -4.105316 -5.926664 8.428151 0.142705 -0.670073 0.055775 3.915894 -41.236526 -3.678211 34.535001 83.314640 39.613152 -2.756405 -11.293908 0.101351 0.280560 0.598091 0.129361
-20.967394 51.922898 30.160212 -179.566662 -39.500426 -0.804600 2.129780 26.209819 -1.587648 0.379415 4.389740 -0.209498 0.575669 6.933329 -0.334367 1.740570 21.540992 -0.812608 0.616983 16.498302 -6.905611 2.269280 -8.154764 -7.614611 12.079778 13.038435 14.730721 25.621021 -7.059986 -32.845205 163.981839 -61.823921 157.464325 -5.574278 3.083357 0.290677 -10.557579 14.249113 -17.672889 -28.442602 -3.913473 38.827609 175.498628 -55.001036 -139.820090 19.568497 -10.122927 -23.521835 -8.253871 -43.041282 -0.477304 -55.402688 81.726913 -64.193597 -4.104618 -5.921440 8.421387 0.145212 -0.677458 0.057474 3.930013 -41.243363 -3.684673 34.443816 83.317285 39.526589 -2.750875 -11.285057 0.107250 0.277279 0.589986 0.126931
-20.968545 51.924521 30.160934 -179.556232 -39.480406 -0.794939 2.124521 26.214093 -1.593373 0.377964 4.392216 -0.213897 0.574730 6.934548 -0.332673 1.736229 21.544227 -0.822463 0.595966 16.473182 -6.896594 2.208168 -8.179974 -7.588562 12.093491 13.068645 14.766095 25.571175 -7.070293 -32.894460 162.129771 -61.680625 159.373240 -5.465833 2.959738 1.230378 -10.564753 14.272691 -17.684702 -28.447469 -3.960833 38.835071 176.486719 -54.984647 -140.691049 19.516758 -10.016639 -24.198204 -8.246554 -43.064825 -0.505127 -55.402703 81.733634 -64.186535 -4.104876 -5.918852 8.418108 0.143652 -0.680832 0.058749 3.952013 -41.258337 -3.710364 34.329044 83.315622 39.417140 -2.751119 -11.277677 0.114641 0.276619 0.587612 0.125215
-20.970251 51.924804 30.163494 -179.543692 -39.446730 -0.782535 2.121913 26.225170 -1.602419 0.373175 4.381126 -0.218295 0.570178 6.930445 -0.334730 1.737481 21.544923 -0.829788 0.572235 16.446884 -6.884023 2.139523 -8.212438 -7.561015 12.093339 13.071183 14.785986 25.515717 -7.061086 -32.912758 160.240384 -61.502486 161.309419 -5.356094 2.833597 2.215807 -10.573250 14.314662 -17.700762 -28.456478 -4.018729 38.861121 177.474432 -54.938934 -141.554040 19.459803 -9.898606 -24.926444 -8.240285 -43.103848 -0.533358 -55.415726 81.739954 -64.192662 -4.112400 -5.920533 8.413507 0.151238 -0.679372 0.060316 3.981233 -41.286416 -3.744710 34.215453 83.310250 39.310875 -2.756650 -11.273625 0.120214 0.277517 0.591038 0.125718
